<svg xmlns="http://www.w3.org/2000/svg" width="312.1203mm" height="1155.90822" viewBox="0 0 405.75638 397.58425">
  <path id ="loop1" d="M194.217291.16534C116.0069-3.403922 43.4035 51.247905 14.45087 122.15032c-18.36378 42.58164-19.22655 91.89177-2.58176 135.15602 25.19148 77.18024 106.00064 127.00952 185.432328 126.84258 43.05131.72762 85.495549-15.06023 118.346893-42.70737 31.73087-12.32576-17.426338-38.82113-29.99306-39.18541C228.070835 354.385 128.5361 340.99478 82.50286 279.88651c-23.93624-32.23874-36.19917-73.87394-28.58885-113.79948 9.46715-59.077721 56.20727-113.675895 117.08883-122.017089 65.487161-14.704995 115.342246 61.532555 158.57554 11.055916C293.893045 20.142563 244.175562.013775 194.217291.16534Z" opacity=".865" fill="#c1eae2"/>
  <path id="loop2" d="M309.243211 371.60765c69.526841-35.99477 105.100609-119.61644 94.744239-195.49893-5.3745-46.06017-29.270369-89.202037-65.309187-118.357618C278.286783 3.489966 183.39013.714706 114.67265 40.556c-37.65316 20.885025-66.52674 55.771776-81.16452 96.1365-21.32425 26.53393 34.4953 24.91652 45.56219 18.95173 23.82574-73.930514 116.731087-112.075744 187.142844-82.151441 36.844333 15.961712 68.273599 45.896146 81.63495 84.281561 21.324502 55.90232 8.125784 126.55212-40.439081 164.20306-49.373708 45.46473-130.656793 4.34597-142.877823 69.67329 48.392592 12.46722 101.515662 5.05531 144.712001-20.04305z" opacity=".865" fill="#3da781"/>
</svg>
